<svg xmlns="http://www.w3.org/2000/svg" aria-hidden="true" style="position:absolute;width:0;height:0;overflow:hidden">
  <defs>
    <symbol id="icon-close" viewBox="0 0 32 32">
      <path stroke-linecap="round" stroke-linejoin="round" stroke-width="2.4" d="M24 8 8 24M8 8l16 16"/>
    </symbol>
    <symbol id="icon-menu" viewBox="0 0 32 32">
      <path stroke-linecap="round" stroke-linejoin="round" stroke-width="2.824" d="M1.882 10.51h28.235M1.882 21.49h28.235"/>
    </symbol>
    <symbol id="icon-youtube" viewBox="0 0 32 32">
      <path d="M23.847 6.476c-1.295-.076-3.962-.152-8-.152h-.533c-3.886 0-6.476.076-7.771.229-1.752.152-2.971.61-3.657 1.219-.61.533-1.067 1.524-1.219 2.819-.076.838-.152 2.59-.152 5.257v.381c0 2.514.076 4.267.229 5.105.229 1.219.61 2.133 1.371 2.667.762.61 2.057.99 3.886 1.143 1.295.076 3.962.152 8 .152h.533c3.886 0 6.476-.076 7.771-.229 1.752-.152 2.971-.61 3.657-1.219.61-.533 1.067-1.524 1.219-2.819.076-.838.152-2.59.152-5.257v-.381c0-2.514-.076-4.267-.229-5.105-.229-1.219-.61-2.133-1.371-2.667-.762-.61-2.057-.99-3.886-1.143zm-2.971 9.371-8.381 5.029V10.819l8.381 5.029z"/>
    </symbol>
    <symbol id="icon-instagram" viewBox="0 0 32 32">
      <path d="M28.112 11.006a8.81 8.81 0 0 0-.567-2.995 6.238 6.238 0 0 0-3.565-3.559 8.979 8.979 0 0 0-2.96-.568c-1.302-.058-1.715-.074-5.022-.074s-3.73 0-5.023.074a8.951 8.951 0 0 0-2.958.568 6.235 6.235 0 0 0-3.565 3.559 8.85 8.85 0 0 0-.567 2.953c-.058 1.302-.076 1.714-.076 5.015s0 3.723.076 5.015a8.893 8.893 0 0 0 .567 2.956 6.238 6.238 0 0 0 3.566 3.558 8.906 8.906 0 0 0 2.958.608c1.304.058 1.717.076 5.023.076s3.73 0 5.023-.076a8.945 8.945 0 0 0 2.96-.566 6.243 6.243 0 0 0 3.565-3.559 8.883 8.883 0 0 0 .567-2.956c.058-1.3.076-1.713.076-5.015-.003-3.301-.003-3.72-.078-5.013zM15.991 22.22c-3.458 0-6.259-2.797-6.259-6.249s2.801-6.249 6.259-6.249c3.455 0 6.259 2.797 6.259 6.249s-2.804 6.249-6.259 6.249zm6.508-11.271a1.456 1.456 0 1 1 0-2.914 1.457 1.457 0 1 1 0 2.914z"/>
      <path d="M15.993 19.787a3.813 3.813 0 1 0 0-7.626 3.813 3.813 0 0 0 0 7.626z"/>
    </symbol>
    <symbol id="icon-facebook" viewBox="0 0 32 32">
      <path d="M20.693 1.92h1.28v4.8h-1.6c-.64 0-1.28 0-1.6.32-.32.32-.32.64-.32 1.387v1.707h3.52v4.053h-3.52v17.6h-5.44V14.08h-2.88v-4.053h2.88V8.64c0-2.347.32-4.053.96-4.8.96-1.387 2.88-2.027 5.76-2.027.32.107.64.107.96.107z"/>
    </symbol>
  </defs>
</svg>
